HIERARCHY
ROOT pelvis
{
  OFFSET 0 0 0
  CHANNELS 6 Xposition Yposition Zposition Zrotation Xrotation Yrotation
  JOINT pelvis_right_femur
  {
    OFFSET -11.43119 -3.542788 0.2090856
    CHANNELS 3 Zrotation Xrotation Yrotation
    JOINT right_femur_tibia
    {
      OFFSET -1.028693 -40.73281 5
      CHANNELS 3 Zrotation Xrotation Yrotation
      JOINT right_tibia_foot
      {
        OFFSET -0.5013517 -42.05707 -5
        CHANNELS 3 Zrotation Xrotation Yrotation
        End Site
        {
          OFFSET 0 -5 10
        }
      }
    }
  }
  JOINT pelvis_left_femur
  {
    OFFSET 11.43119 -3.542788 0.2090856
    CHANNELS 3 Zrotation Xrotation Yrotation
    JOINT left_femur_tibia
    {
      OFFSET 1.028693 -40.73281 5
      CHANNELS 3 Zrotation Xrotation Yrotation
      JOINT left_tibia_foot
      {
        OFFSET 0.3200228 -42.98253 -5
        CHANNELS 3 Zrotation Xrotation Yrotation
        End Site
        {
          OFFSET 0 -5 10
        }
      }
    }
  }
  JOINT pelvis_spine1
  {
    OFFSET 0 8.64413 -3.209807
    CHANNELS 3 Zrotation Xrotation Yrotation
    JOINT spine1
    {
      OFFSET 0 29.53957 -1.762685
      CHANNELS 3 Zrotation Xrotation Yrotation
      JOINT spine2
      {
        OFFSET 0 16.36153 -0.1422377
        CHANNELS 3 Zrotation Xrotation Yrotation
        JOINT neck
        {
          OFFSET 0 11.60093 5
          CHANNELS 3 Zrotation Xrotation Yrotation
          End Site
          {
            OFFSET 0 20 0
          }
        }
      }
      JOINT right_manubrium
      {
        OFFSET -4.671311 15.89868 4
        CHANNELS 3 Zrotation Xrotation Yrotation
        JOINT right_clavicle
        {
          OFFSET -13.601 1.573642 -2.74176
          CHANNELS 3 Zrotation Xrotation Yrotation
          JOINT right_humerus
          {
            OFFSET -0.06331682 -27.72702 2.252146
            CHANNELS 3 Zrotation Xrotation Yrotation
            JOINT right_radius
            {
              OFFSET -0.5696302 -23.92083 0.4042105
              CHANNELS 3 Zrotation Xrotation Yrotation
              End Site
              {
                OFFSET 0 -15 0
              }
            }
          }
        }
      }
      JOINT left_manubrium
      {
        OFFSET 4.671311 15.89868 4
        CHANNELS 3 Zrotation Xrotation Yrotation
        JOINT left_clavicle
        {
          OFFSET 13.601 1.573642 -2.74176
          CHANNELS 3 Zrotation Xrotation Yrotation
          JOINT left_humerus
          {
            OFFSET 0.000209614 -29.01858 1.101395
            CHANNELS 3 Zrotation Xrotation Yrotation
            JOINT left_radius
            {
              OFFSET -0.2288314 -24.59216 1.790347
              CHANNELS 3 Zrotation Xrotation Yrotation
              End Site
              {
                OFFSET 0 -15 0
              }
            }
          }
        }
      }
    }
  }
}
MOTION
Frames: 23
Frame Time: 0.0416666666667
0 48.05195 0 -1.984184 -21.53628 -0.7440813 -51.31656 -60.95548 -39.5413 -180 81.36917 -180 10.7785 2.768383 3.200399 63.57471 -48.57265 51.47084 -180 72.00378 -180 -7.412624 -7.645175 -12.43266 -0.8867482 21.16945 1.715826 7.663827 15.57311 -9.830093 -10.45488 8.591029 10.18886 6.676977 -28.80957 5.142152 21.81088 -10.05765 25.86934 -59.13827 -34.35336 15.82852 0 -65.94807 0 19.9349 5.908882 35.94761 -26.81427 -30.48205 -1.809849 54.52833 -20.4906 -20.61987 0 -70.97081 0 -4.900184 -7.027292 -13.35336
-0.06124267 48.12022 -0.02653117 -1.830998 -21.50418 -0.7087122 -51.46422 -60.93471 -39.70885 -180 81.40878 -180 10.7718 2.772108 3.207804 63.47787 -48.47001 51.5056 -180 72.12851 -180 -7.388687 -7.597027 -12.51786 -1.002831 21.37511 1.89567 7.054048 15.68649 -9.496277 -9.861507 8.593124 9.816455 6.885045 -29.1556 5.139992 22.06411 -10.13018 25.36993 -59.11412 -34.25008 15.62373 0 -66.48466 0 19.92147 5.826627 35.93279 -27.23469 -32.01946 -0.5166987 55.05955 -17.70849 -15.76252 0 -71.01129 0 -1.24383 -9.78284 -10.02664
-0.07155461 48.04632 -0.02211947 -1.930866 -21.36544 -0.634442 -51.79431 -60.93663 -40.16341 -180 81.37337 -180 10.78172 2.762726 3.236668 63.8266 -48.62003 51.78159 -180 72.10334 -180 -7.379567 -7.588678 -12.59201 -0.7640742 21.50099 2.025008 6.529778 15.61497 -9.151049 -9.315045 8.670604 9.420396 7.079861 -29.4092 5.061793 22.18269 -10.24943 24.77411 -59.17786 -34.0773 15.38229 0 -67.12547 0 19.90731 5.693719 35.88967 -27.32814 -33.94901 0.8809567 55.64701 -14.95004 -10.59669 0 -70.12838 0 2.583115 -12.08805 -6.270491
-0.1251816 48.05991 -0.02169484 -1.961647 -21.19545 -0.5172457 -52.06963 -60.9279 -40.5635 -180 81.34934 -180 10.79519 2.728267 3.228742 64.05083 -48.77807 51.97308 -180 72.14431 -180 -7.358816 -7.564635 -12.67977 -0.6442991 21.6206 2.279646 6.128276 15.50871 -8.824883 -8.928182 8.807319 9.067331 7.217804 -29.64451 4.947982 22.29592 -10.30912 24.14717 -59.2708 -33.7962 15.1382 0 -67.79991 0 19.89098 5.517697 35.81533 -27.11871 -36.25514 2.02684 56.37104 -12.5318 -5.447367 0 -68.14307 0 6.051513 -13.71626 -2.332591
-0.1547598 48.07564 0.003098606 -2.005134 -21.02509 -0.372371 -52.26438 -60.92789 -40.8405 -180 81.31897 -180 10.8108 2.677246 3.180437 64.28161 -48.92206 52.1907 -180 72.17817 -180 -7.337547 -7.544603 -12.78992 -0.6150394 21.72056 2.509818 5.887156 15.35691 -8.584521 -8.661358 8.9806 8.803715 7.316765 -29.82912 4.880102 22.3963 -10.33871 23.56914 -59.37945 -33.48525 14.92255 0 -68.48462 0 19.88138 5.297312 35.7077 -26.58782 -38.75675 2.777291 57.33212 -10.55725 -0.6684325 0 -64.86493 0 8.628039 -14.52874 1.552446
-0.1660701 48.07592 0.03939323 -2.076851 -20.86894 -0.2442317 -52.3401 -60.95367 -40.97145 -180 81.29207 -180 10.82795 2.619065 3.105336 64.59755 -49.01236 52.47997 -180 72.17008 -180 -7.311934 -7.533433 -12.93302 -0.6750042 21.78902 2.682937 5.822362 15.19199 -8.418095 -8.503162 9.144099 8.63725 7.368041 -29.9558 4.878098 22.46056 -10.34959 23.13713 -59.49949 -33.18082 14.75882 0 -69.08218 0 19.88501 5.04577 35.55694 -25.65147 -41.15735 3.083586 58.59909 -9.105934 3.309644 0 -60.46027 0 9.955328 -14.6681 5.082839
-0.1296561 48.06894 0.08105556 -2.188511 -20.73838 -0.1386181 -52.33968 -60.9629 -41.01495 -180 81.27289 -180 10.84621 2.565463 3.013406 64.96299 -49.05556 52.81929 -180 72.1229 -180 -7.285392 -7.535069 -13.08578 -0.8109276 21.82416 2.753185 5.97084 15.06559 -8.362527 -8.404897 9.235891 8.563526 7.381983 -30.0408 4.969381 22.47791 -10.37515 22.85785 -59.64874 -32.90224 14.6298 0 -69.55333 0 19.90035 4.763499 35.35881 -24.29613 -43.17214 2.972758 60.18433 -8.121524 6.20779 0 -55.07971 0 9.950323 -14.36497 8.045059
-0.06912308 48.06177 0.1317416 -2.343459 -20.62952 -0.04149177 -52.25988 -60.94893 -40.98968 -180 81.28488 -180 10.86224 2.52766 2.923873 65.35265 -49.09046 53.17043 -180 72.04024 -180 -7.261155 -7.554229 -13.23639 -1.08303 21.84422 2.76233 6.323472 15.03405 -8.420302 -8.243223 9.188697 8.5405 7.428736 -30.13799 5.15917 22.48223 -10.44798 22.71415 -59.84062 -32.67125 14.49816 0 -69.90379 0 19.91863 4.439342 35.10578 -22.65293 -44.58585 2.55722 61.92811 -7.395086 7.977302 0 -48.9366 0 8.7906 -13.82567 10.43618
0.02042614 48.06111 0.1564354 -2.554086 -20.52194 0.001734409 -52.10444 -60.92776 -40.93379 -180 81.34937 -180 10.88103 2.504555 2.833746 65.75989 -49.13137 53.51641 -180 71.95383 -180 -7.234766 -7.585336 -13.37208 -1.41571 21.85111 2.70285 6.780862 15.07865 -8.572847 -7.962799 9.0264 8.526858 7.554012 -30.25593 5.410279 22.49114 -10.54139 22.71765 -60.03925 -32.48951 14.38444 0 -70.14741 0 19.93746 4.067262 34.79251 -21.07458 -45.42973 1.83974 63.5157 -6.924018 8.7214 0 -42.80599 0 6.789334 -13.38243 12.27617
0.1091085 48.06632 0.1672941 -2.803423 -20.41115 0.01725679 -51.89539 -60.90021 -40.87084 -180 81.44505 -180 10.89698 2.489187 2.775385 66.16616 -49.19922 53.82291 -180 71.87189 -180 -7.206723 -7.623632 -13.47752 -1.783068 21.86686 2.640979 7.246512 15.12031 -8.724517 -7.543815 8.797383 8.4807 7.790687 -30.40387 5.663062 22.50493 -10.64027 22.7756 -60.2301 -32.32696 14.27947 0 -70.29191 0 19.94497 3.650117 34.41466 -19.66011 -46.01364 1.054024 64.95979 -6.673545 8.878022 0 -37.27722 0 4.359383 -13.2107 13.59101
0.1770003 48.06912 0.1669451 -3.059756 -20.31949 0.02323104 -51.68264 -60.87153 -40.83497 -180 81.54074 -180 10.91693 2.477134 2.733408 66.57197 -49.28086 54.09594 -180 71.79711 -180 -7.180035 -7.66803 -13.54683 -2.122233 21.88568 2.589462 7.596217 15.13748 -8.850933 -7.056253 8.608602 8.39044 8.113952 -30.53515 5.853527 22.54582 -10.70861 22.85582 -60.38081 -32.17054 14.20534 0 -70.34762 0 19.94076 3.188214 33.96844 -18.65832 -46.59009 0.2359677 66.10874 -6.703052 8.737997 0 -32.93346 0 1.917381 -13.38747 14.50255
0.2405476 48.05902 0.1768477 -3.328885 -20.23554 0.01017775 -51.46579 -60.85132 -40.82575 -180 81.61365 -180 10.94145 2.463833 2.689422 66.97591 -49.37971 54.31931 -180 71.71292 -180 -7.154545 -7.716363 -13.5913 -2.444673 21.90824 2.55131 7.803814 15.12893 -8.969197 -6.535977 8.453659 8.253848 8.491195 -30.64103 5.963661 22.61464 -10.74864 22.90265 -60.50116 -32.01386 14.15033 0 -70.35363 0 19.91897 2.672087 33.44856 -18.07133 -47.24287 -0.5364996 67.0383 -6.88217 8.510287 0 -29.65747 0 -0.3609459 -13.77826 15.08816
0.2746848 48.05836 0.1839713 -3.570724 -20.16408 -0.007726589 -51.22389 -60.84212 -40.78982 -180 81.67214 -180 10.96196 2.443725 2.644669 67.32384 -49.4747 54.47313 -180 71.6433 -180 -7.128531 -7.76304 -13.61856 -2.682075 21.89376 2.531245 7.867632 15.12911 -9.062094 -6.138348 8.362793 8.090162 8.822421 -30.71784 5.954742 22.7171 -10.7499 22.94557 -60.58141 -31.87375 14.13112 0 -70.29296 0 19.87948 2.108458 32.84688 -17.80228 -47.90376 -1.221323 67.72248 -7.204205 8.200841 0 -27.44499 0 -2.30344 -14.28913 15.44234
0.2855972 48.05676 0.2040003 -3.778297 -20.10194 -0.03760965 -50.98362 -60.84634 -40.74515 -180 81.70833 -180 10.98233 2.414405 2.598267 67.63377 -49.5485 54.58336 -180 71.58266 -180 -7.109802 -7.815863 -13.63079 -2.887287 21.87065 2.499089 7.862288 15.11615 -9.146578 -5.844502 8.290952 7.914648 9.108251 -30.79965 5.869795 22.82946 -10.70941 23.00087 -60.61446 -31.78144 14.18351 0 -70.1979 0 19.83186 1.492507 32.15958 -17.70409 -48.57658 -1.839658 68.30642 -7.580974 7.896306 0 -25.89996 0 -3.890084 -14.76653 15.65427
0.2921028 48.05872 0.2303031 -3.963714 -20.03754 -0.09531479 -50.75946 -60.86863 -40.6947 -180 81.73854 -180 11.00053 2.384662 2.563492 67.90601 -49.59662 54.66266 -180 71.52752 -180 -7.099358 -7.875219 -13.63135 -3.094178 21.86404 2.430367 7.877803 15.08747 -9.244466 -5.595086 8.182283 7.734257 9.373101 -30.91659 5.758001 22.93515 -10.64329 23.0908 -60.62446 -31.7517 14.29605 0 -70.07897 0 19.77603 0.8195388 31.37875 -17.66689 -49.14398 -2.436039 68.81625 -7.917507 7.550956 0 -24.64304 0 -5.228853 -15.09729 15.81993
0.2990211 48.06135 0.2538438 -4.137971 -19.96889 -0.1724937 -50.54796 -60.90723 -40.65221 -180 81.78012 -180 11.01954 2.36186 2.538439 68.14614 -49.62889 54.7295 -180 71.47612 -180 -7.101721 -7.944364 -13.61305 -3.352958 21.89051 2.338866 7.974374 15.04116 -9.355114 -5.272778 8.001734 7.547194 9.674873 -31.07589 5.679329 23.0057 -10.57595 23.17982 -60.64966 -31.76874 14.44399 0 -69.96409 0 19.71144 0.07567286 30.49713 -17.62737 -49.55865 -2.985207 69.3073 -8.118542 7.167571 0 -23.46941 0 -6.393181 -15.25991 15.99127
0.3077724 48.07393 0.2726623 -4.274338 -19.90357 -0.2468222 -50.39386 -60.93546 -40.64261 -180 81.82128 -180 11.03486 2.350342 2.533791 68.29507 -49.65395 54.73971 -180 71.44128 -180 -7.114161 -8.023774 -13.58025 -3.597082 21.91823 2.257354 8.143333 15.0023 -9.454917 -4.918488 7.77847 7.3673 9.988128 -31.25961 5.635089 23.03495 -10.51278 23.26833 -60.71644 -31.81918 14.60193 0 -69.83093 0 19.63156 -0.7414486 29.50259 -17.6065 -49.79487 -3.463357 69.71844 -8.241594 6.699024 0 -22.57622 0 -7.415184 -15.2942 16.1444
0.3372387 48.08558 0.3028852 -4.378351 -19.8488 -0.3255708 -50.32656 -60.93402 -40.67864 -180 81.85787 -180 11.04337 2.342612 2.562554 68.3582 -49.67127 54.70046 -180 71.39884 -180 -7.143441 -8.121957 -13.53116 -3.797153 21.92292 2.199811 8.35716 15.00573 -9.540881 -4.522788 7.521762 7.196489 10.30694 -31.44437 5.635656 23.00694 -10.46219 23.34359 -60.83292 -31.90422 14.76945 0 -69.69248 0 19.53369 -1.642084 28.38364 -17.65609 -49.80084 -3.827944 70.01578 -8.262474 6.112908 0 -22.06004 0 -8.316714 -15.20355 16.25334
0.370414 48.08798 0.3480889 -4.425224 -19.83086 -0.381307 -50.34609 -60.88834 -40.74327 -180 81.87037 -180 11.04518 2.335013 2.616618 68.28397 -49.68483 54.5573 -180 71.35649 -180 -7.184896 -8.233467 -13.46798 -3.86572 21.83032 2.20746 8.546601 15.09543 -9.574184 -4.191331 7.320121 7.024494 10.57288 -31.56866 5.601497 22.87685 -10.43877 23.36539 -61.03403 -31.98958 14.91921 0 -69.48136 0 19.40964 -2.623966 27.11764 -17.69195 -49.59692 -3.900669 70.22877 -8.311895 5.381631 0 -22.3894 0 -9.02323 -15.06662 16.20059
0.4043134 48.09522 0.4099381 -4.419887 -19.85456 -0.4000181 -50.41083 -60.78692 -40.79476 -180 81.85371 -180 11.04232 2.320358 2.680578 68.06408 -49.69668 54.29873 -180 71.3155 -180 -7.228788 -8.338979 -13.39463 -3.7725 21.60995 2.271812 8.674452 15.26153 -9.563777 -3.972316 7.208081 6.845926 10.76936 -31.62101 5.4919 22.55994 -10.4509 23.389 -61.37389 -32.05291 15.0494 0 -69.07471 0 19.26771 -3.67019 25.68479 -17.75726 -49.10563 -3.792709 70.18696 -8.591159 4.36237 0 -23.88319 0 -9.663614 -14.91765 15.9456
0.4247401 48.11476 0.4705143 -4.375397 -19.90851 -0.36343 -50.46933 -60.6431 -40.79956 -180 81.82435 -180 11.03878 2.296354 2.736424 67.74945 -49.73692 53.96598 -180 71.30543 -180 -7.264277 -8.415642 -13.31993 -3.572536 21.31209 2.417658 8.676761 15.48314 -9.508076 -3.828209 7.159305 6.639916 10.9193 -31.61147 5.289695 22.09825 -10.54274 23.4402 -61.83833 -32.10157 15.08974 0 -68.38269 0 19.08126 -4.763801 24.05379 -17.93514 -48.31005 -3.492394 69.85658 -9.055454 3.04819 0 -26.58463 0 -10.2918 -14.82406 15.47298
0.4150922 48.12679 0.495178 -4.282594 -20.01132 -0.2790169 -50.51185 -60.49626 -40.75422 -180 81.77658 -180 11.03812 2.268316 2.769706 67.38239 -49.79457 53.60681 -180 71.32667 -180 -7.283452 -8.440639 -13.25093 -3.298006 20.98349 2.626099 8.523193 15.705 -9.397518 -3.793699 7.160664 6.420814 11.0048 -31.53938 4.997649 21.65687 -10.69406 23.61132 -62.27072 -32.17464 15.01957 0 -67.39137 0 18.79351 -5.88518 22.20945 -18.37778 -47.25053 -3.145301 69.16441 -9.786185 1.415948 0 -30.58134 0 -10.88024 -14.82743 14.79765
0.3729145 48.11089 0.4684764 -4.150836 -20.1637 -0.1437728 -50.53957 -60.37045 -40.65324 -180 81.7171 -180 11.03805 2.245471 2.774743 67.01464 -49.86189 53.27924 -180 71.38828 -180 -7.284838 -8.415058 -13.20802 -2.975939 20.67057 2.85675 8.281705 15.8874 -9.241448 -3.930599 7.192583 6.201407 10.98907 -31.41469 4.606763 21.35963 -10.85353 23.88921 -62.54859 -32.26104 14.8428 0 -66.25072 0 18.36277 -7.0441 20.17917 -19.01409 -46.05607 -2.791548 68.19634 -10.8265 -0.4638457 0 -35.70727 0 -11.39687 -14.897 13.9654
